<svg width="8" height="12" viewBox="0 0 8 12" fill="none" xmlns="http://www.w3.org/2000/svg">
<path d="M7.2 0C7.3125 0 7.41667 0.0195312 7.5125 0.0585938C7.60833 0.0976562 7.69167 0.152344 7.7625 0.222656C7.8375 0.289062 7.89583 0.367188 7.9375 0.457031C7.97917 0.546875 8 0.644531 8 0.75V11.25C8 11.3555 7.97917 11.4531 7.9375 11.543C7.89583 11.6328 7.8375 11.7129 7.7625 11.7832C7.69167 11.8496 7.60833 11.9023 7.5125 11.9414C7.41667 11.9805 7.3125 12 7.2 12H0.8C0.6875 12 0.583333 11.9805 0.4875 11.9414C0.391667 11.9023 0.30625 11.8496 0.23125 11.7832C0.160417 11.7129 0.104167 11.6328 0.0625 11.543C0.0208333 11.4531 0 11.3555 0 11.25V0.75C0 0.644531 0.0208333 0.546875 0.0625 0.457031C0.104167 0.367188 0.160417 0.289062 0.23125 0.222656C0.30625 0.152344 0.391667 0.0976562 0.4875 0.0585938C0.583333 0.0195312 0.6875 0 0.8 0H7.2ZM6.85714 1H1.14286V11H6.85714V1ZM3 9H5V10H3V9Z" fill="#fff"/>
</svg>
