<svg width="24" height="24" viewBox="0 0 24 24" fill="none" xmlns="http://www.w3.org/2000/svg">
<path d="M19.625 14.9141C19.6875 14.9766 19.7422 15.0521 19.7891 15.1406C19.8359 15.2292 19.875 15.3229 19.9062 15.4219C19.9375 15.5208 19.9609 15.6224 19.9766 15.7266C19.9922 15.8255 20 15.9167 20 16C20 16.1406 19.974 16.2708 19.9219 16.3906C19.8698 16.5104 19.7969 16.6172 19.7031 16.7109C19.6146 16.7995 19.5104 16.8698 19.3906 16.9219C19.2708 16.974 19.1406 17 19 17H5C4.85938 17 4.72917 16.974 4.60938 16.9219C4.48958 16.8698 4.38281 16.7995 4.28906 16.7109C4.20052 16.6172 4.13021 16.5104 4.07812 16.3906C4.02604 16.2708 4 16.1406 4 16C4 15.9167 4.00781 15.8255 4.02344 15.7266C4.03906 15.6224 4.0625 15.5208 4.09375 15.4219C4.125 15.3229 4.16406 15.2292 4.21094 15.1406C4.25781 15.0521 4.3125 14.9766 4.375 14.9141L6 13.2891V6H18V13.2891L19.625 14.9141ZM7 13H17V7H7V13ZM19 16C19 15.9427 18.9896 15.8698 18.9688 15.7812C18.9479 15.6875 18.9167 15.6198 18.875 15.5781L17.2891 14H6.71094L5.125 15.5781C5.08333 15.6198 5.05208 15.6875 5.03125 15.7812C5.01042 15.8698 5 15.9427 5 16H19Z" fill="#fff"/>
</svg>
