<svg width="70" height="21" viewBox="0 0 70 21" fill="none" xmlns="http://www.w3.org/2000/svg">
<g clip-path="url(#clip0)">
<path d="M10.4995 0.0346375C4.71837 0.0346375 0.0316162 4.72126 0.0316162 10.5024C0.0316162 16.2838 4.71837 20.97 10.4995 20.97C16.2812 20.97 20.9675 16.2838 20.9675 10.5024C20.9675 4.72164 16.2812 0.0351374 10.4994 0.0351374L10.4995 0.0346375V0.0346375ZM15.3 15.1321C15.1125 15.4396 14.71 15.5371 14.4025 15.3484C11.9447 13.8471 8.85074 13.5071 5.20699 14.3396C4.85587 14.4196 4.50587 14.1996 4.42587 13.8484C4.34549 13.4971 4.56462 13.1471 4.91662 13.0671C8.90412 12.1561 12.3245 12.5484 15.0837 14.2346C15.3912 14.4234 15.4887 14.8246 15.3 15.1321V15.1321ZM16.5812 12.2819C16.345 12.6659 15.8425 12.7871 15.4587 12.5509C12.645 10.8214 8.35587 10.3205 5.02774 11.3308C4.59612 11.4611 4.14024 11.2179 4.00924 10.787C3.87924 10.3554 4.12262 9.90039 4.55349 9.76914C8.35512 8.61564 13.0812 9.17439 16.3125 11.16C16.6962 11.3963 16.8175 11.8988 16.5812 12.282V12.2819ZM16.6912 9.31389C13.3175 7.31001 7.75124 7.12576 4.53012 8.10339C4.01287 8.26026 3.46587 7.96826 3.30912 7.45101C3.15237 6.93351 3.44412 6.38689 3.96174 6.22964C7.65937 5.10714 13.8062 5.32401 17.6905 7.62989C18.1567 7.90601 18.3092 8.50689 18.033 8.97151C17.758 9.43676 17.1555 9.59014 16.6917 9.31389H16.6912ZM28.5112 9.69789C26.7037 9.26689 26.3825 8.96439 26.3825 8.32876C26.3825 7.72826 26.9475 7.32414 27.7887 7.32414C28.6037 7.32414 29.4112 7.63101 30.2587 8.26276C30.2837 8.28189 30.3162 8.28951 30.3475 8.28451C30.38 8.27976 30.4075 8.26239 30.4262 8.23626L31.3087 6.99226C31.345 6.94101 31.335 6.87039 31.2862 6.83126C30.2775 6.02214 29.1425 5.62876 27.815 5.62876C25.8637 5.62876 24.5 6.79989 24.5 8.47551C24.5 10.2724 25.6762 10.9086 27.7087 11.3998C29.4375 11.7981 29.73 12.1319 29.73 12.7284C29.73 13.3896 29.14 13.8009 28.19 13.8009C27.135 13.8009 26.2737 13.4446 25.3112 12.6121C25.2875 12.5909 25.255 12.5821 25.225 12.5834C25.1925 12.5859 25.1637 12.6009 25.1437 12.6246L24.1537 13.8021C24.1125 13.8521 24.1175 13.9246 24.165 13.9671C25.285 14.9671 26.6625 15.4946 28.15 15.4946C30.2525 15.4946 31.6112 14.3459 31.6112 12.5671C31.615 11.0663 30.7162 10.235 28.515 9.69951L28.5112 9.69789V9.69789ZM36.3687 7.91539C35.4575 7.91539 34.71 8.27439 34.0925 9.01001V8.18201C34.0925 8.11664 34.04 8.06339 33.975 8.06339H32.3562C32.2912 8.06339 32.2387 8.11664 32.2387 8.18201V17.3821C32.2387 17.4471 32.2912 17.5009 32.3562 17.5009H33.975C34.04 17.5009 34.0925 17.4471 34.0925 17.3821V14.4784C34.71 15.1696 35.4575 15.5084 36.3687 15.5084C38.0625 15.5084 39.7775 14.2046 39.7775 11.7123C39.78 9.21939 38.065 7.91526 36.37 7.91526L36.3687 7.91539ZM37.895 11.7123C37.895 12.9809 37.1137 13.8671 35.9937 13.8671C34.8875 13.8671 34.0525 12.9409 34.0525 11.7123C34.0525 10.4835 34.8875 9.55751 35.9937 9.55751C37.095 9.55739 37.895 10.4634 37.895 11.7121V11.7123ZM44.1712 7.91539C41.99 7.91539 40.2812 9.59489 40.2812 11.7394C40.2812 13.8609 41.9787 15.5221 44.145 15.5221C46.3337 15.5221 48.0475 13.8484 48.0475 11.7123C48.0475 9.58339 46.345 7.91564 44.1712 7.91564V7.91539V7.91539ZM44.1712 13.8796C43.0112 13.8796 42.1362 12.9471 42.1362 11.7116C42.1362 10.4705 42.9812 9.56989 44.145 9.56989C45.3125 9.56989 46.1925 10.502 46.1925 11.7388C46.1925 12.9796 45.3425 13.8796 44.1712 13.8796V13.8796ZM52.705 8.06339H50.9237V6.24264C50.9237 6.17739 50.8712 6.12414 50.8062 6.12414H49.1875C49.1225 6.12414 49.0687 6.17739 49.0687 6.24264V8.06339H48.2912C48.2262 8.06339 48.1737 8.11664 48.1737 8.18201V9.57289C48.1737 9.63814 48.2262 9.69151 48.2912 9.69151H49.0687V13.2909C49.0687 14.7446 49.7925 15.4821 51.2212 15.4821C51.8012 15.4821 52.2825 15.3621 52.7362 15.1046C52.7737 15.0846 52.7962 15.0446 52.7962 15.0021V13.6771C52.7962 13.6371 52.775 13.5984 52.74 13.5771C52.705 13.5546 52.6612 13.5534 52.625 13.5721C52.3137 13.7284 52.0125 13.8009 51.675 13.8009C51.1562 13.8009 50.9237 13.5646 50.9237 13.0371V9.69214H52.705C52.77 9.69214 52.8225 9.63889 52.8225 9.57351V8.18276C52.825 8.11739 52.7725 8.06414 52.7062 8.06414L52.705 8.06339V8.06339ZM58.91 8.07051V7.84689C58.91 7.18901 59.1625 6.89564 59.7275 6.89564C60.065 6.89564 60.3362 6.96264 60.64 7.06389C60.6775 7.07564 60.7162 7.06976 60.7462 7.04739C60.7775 7.02501 60.795 6.98914 60.795 6.95114V5.58739C60.795 5.53526 60.7625 5.48914 60.7112 5.47376C60.3912 5.37839 59.9812 5.28051 59.3662 5.28051C57.8725 5.28051 57.0812 6.12226 57.0812 7.71389V8.05639H56.3037C56.2387 8.05639 56.185 8.10964 56.185 8.17489V9.57289C56.185 9.63814 56.2387 9.69151 56.3037 9.69151H57.0812V15.2421C57.0812 15.3084 57.135 15.3609 57.2 15.3609H58.8175C58.8837 15.3609 58.9362 15.3084 58.9362 15.2421V9.69189H60.4475L62.7625 15.2421C62.5 15.8246 62.2412 15.9409 61.8887 15.9409C61.6037 15.9409 61.3025 15.8559 60.9962 15.6871C60.9675 15.6721 60.9325 15.6696 60.9025 15.6784C60.8712 15.6896 60.845 15.7121 60.8325 15.7421L60.2837 16.9459C60.2575 17.0034 60.28 17.0696 60.335 17.0996C60.9075 17.4096 61.4237 17.5421 62.0625 17.5421C63.2575 17.5421 63.9187 16.9846 64.5 15.4871L67.3075 8.23251C67.3225 8.19601 67.3175 8.15476 67.295 8.12239C67.2737 8.09026 67.2375 8.07089 67.1987 8.07089H65.5137C65.4625 8.07089 65.4175 8.10301 65.4012 8.15039L63.675 13.0796L61.785 8.14714C61.7675 8.10126 61.7237 8.07089 61.675 8.07089H58.91V8.07051V8.07051ZM55.3125 8.06339H53.6937C53.6287 8.06339 53.575 8.11664 53.575 8.18201V15.2421C53.575 15.3084 53.6287 15.3609 53.6937 15.3609H55.3125C55.3775 15.3609 55.4312 15.3084 55.4312 15.2421V8.18251C55.4312 8.11714 55.3787 8.06389 55.3125 8.06389V8.06339ZM54.5125 4.84851C53.8712 4.84851 53.3512 5.36751 53.3512 6.00864C53.3512 6.65014 53.8712 7.16976 54.5125 7.16976C55.1537 7.16976 55.6725 6.65014 55.6725 6.00864C55.6725 5.36764 55.1525 4.84851 54.5125 4.84851ZM68.69 10.3335C68.05 10.3335 67.5512 9.81914 67.5512 9.19451C67.5512 8.56989 68.0562 8.04964 68.6962 8.04964C69.3362 8.04964 69.835 8.56389 69.835 9.18801C69.835 9.81264 69.33 10.3335 68.69 10.3335ZM68.6962 8.16289C68.1125 8.16289 67.6712 8.62664 67.6712 9.19451C67.6712 9.76214 68.11 10.2196 68.69 10.2196C69.2737 10.2196 69.715 9.75626 69.715 9.18801C69.715 8.62039 69.2762 8.16289 68.6962 8.16289V8.16289ZM68.9487 9.30514L69.2712 9.75614H68.9987L68.7087 9.34239H68.46V9.75614H68.2325V8.56064H68.765C69.0437 8.56064 69.2262 8.70276 69.2262 8.94201C69.2275 9.13801 69.1137 9.25776 68.95 9.30514H68.9487ZM68.7562 8.76576H68.46V9.14389H68.7562C68.9037 9.14389 68.9925 9.07151 68.9925 8.95464C68.9925 8.83164 68.9037 8.76576 68.7562 8.76576V8.76576Z" fill="white"/>
</g>
<defs>
<clipPath id="clip0">
<rect width="69.875" height="21" fill="white"/>
</clipPath>
</defs>
</svg>
