<svg width="93" height="20" viewBox="0 0 93 20" fill="none" xmlns="http://www.w3.org/2000/svg">
<path fill-rule="evenodd" clip-rule="evenodd" d="M15.7067 0.000546937C15.5334 0 15.3488 0 15.1515 0H10C4.47715 0 0 4.47715 0 10C0 15.5228 4.47715 20 10 20H11.6279C12.7166 20 13.2609 20 13.7181 19.9412C14.4178 19.8513 15.0855 19.662 15.7067 19.3879V0.000546937ZM13.5138 16.0192C12.6423 16.5458 11.5529 16.8 10.2092 16.8C6.50516 16.8 3.60001 13.9493 3.60001 10.1363C3.60001 6.21436 6.59595 3.4 10.3 3.4C11.7526 3.4 12.842 3.69052 13.4775 4.01735V6.01463C12.7694 5.56071 11.6073 5.10678 10.2819 5.10678C7.61275 5.10678 5.52467 7.21301 5.52467 10.1363C5.52467 12.9688 7.54012 15.0751 10.3 15.0751C11.8071 15.0751 12.9691 14.494 13.5138 14.0583V16.0192Z" fill="white"/>
<path d="M19.9412 13.7181C19.7326 15.3411 18.7497 16.8627 17.6533 17.96V0.149953C17.7388 0.149953 18.0057 0.235251 18.0597 0.258367C18.8156 0.582079 19.4179 1.18438 19.7416 1.94032C20 2.54366 20 3.31194 20 4.84849V11.6279C20 12.7166 20 13.2609 19.9412 13.7181Z" fill="white"/>
<path d="M31.188 15.196C32.196 15.196 33.162 14.93 34.058 14.412V12.494C33.022 13.39 32.308 13.698 31.216 13.698C29.032 13.698 27.338 11.934 27.338 9.75C27.338 7.524 29.032 5.746 31.202 5.746C32.196 5.746 33.148 6.124 34.058 6.894V5.018C33.176 4.5 32.266 4.234 31.314 4.234C28.122 4.234 25.742 6.754 25.742 9.764C25.742 12.788 28.108 15.196 31.188 15.196ZM38.8207 15.196C40.9767 15.196 42.4047 13.656 42.4047 11.682C42.4047 9.694 40.9627 8.154 38.8487 8.154C36.7207 8.154 35.3067 9.736 35.3067 11.626C35.3067 13.656 36.7207 15.196 38.8207 15.196ZM38.8487 13.824C37.6447 13.824 36.8747 12.97 36.8747 11.654C36.8747 10.422 37.6727 9.54 38.8487 9.54C40.0527 9.54 40.8367 10.422 40.8367 11.682C40.8367 12.97 40.0387 13.824 38.8487 13.824ZM45.4162 15V11.654C45.4162 10.1 46.0042 9.54 46.9562 9.54C47.8102 9.54 48.2162 10.002 48.2162 11.276V15H49.7562V10.912C49.7562 9.162 49.0002 8.154 47.4602 8.154C46.5502 8.154 45.9342 8.49 45.4442 9.05H45.4162V8.336H43.8762V15H45.4162ZM53.4218 15V9.778H54.6118V8.336H53.4218V5.9H51.8818V8.336H50.8038V9.778H51.8818V15H53.4218ZM56.5544 6.446C57.1144 6.446 57.5624 5.984 57.5624 5.438C57.5624 4.892 57.1004 4.444 56.5404 4.444C55.9944 4.444 55.5464 4.906 55.5464 5.438C55.5464 5.984 55.9804 6.446 56.5544 6.446ZM57.3244 15V8.336H55.7844V15H57.3244ZM60.8107 15V11.654C60.8107 10.1 61.3987 9.54 62.3507 9.54C63.2047 9.54 63.6107 10.002 63.6107 11.276V15H65.1507V10.912C65.1507 9.162 64.3947 8.154 62.8547 8.154C61.9447 8.154 61.3287 8.49 60.8387 9.05H60.8107V8.336H59.2707V15H60.8107ZM69.6703 15.196C71.5323 15.196 72.5263 14.076 72.5263 12.2V8.336H70.9863V12.158C70.9863 13.278 70.5383 13.824 69.6703 13.824C68.8023 13.824 68.3683 13.278 68.3683 12.158V8.336H66.8283V12.2C66.8283 14.244 67.9623 15.196 69.6703 15.196ZM77.0531 15.196C78.9151 15.196 79.9091 14.076 79.9091 12.2V8.336H78.3691V12.158C78.3691 13.278 77.9211 13.824 77.0531 13.824C76.1851 13.824 75.7511 13.278 75.7511 12.158V8.336H74.2111V12.2C74.2111 14.244 75.3451 15.196 77.0531 15.196ZM83.2599 15V11.416C83.2599 10.128 83.6939 9.54 84.6039 9.54C85.4019 9.54 85.7659 10.058 85.7659 11.206V15H87.3059V11.416C87.3059 10.128 87.7119 9.54 88.6359 9.54C89.4759 9.54 89.8259 10.03 89.8259 11.304V15H91.3659V10.884C91.3659 9.092 90.5679 8.154 88.9999 8.154C88.0899 8.154 87.4179 8.504 86.8859 9.148H86.8719C86.4519 8.476 85.9059 8.154 85.0099 8.154C84.1839 8.154 83.6799 8.462 83.2739 8.952H83.2599V8.336H81.7199V15H83.2599Z" fill="white"/>
</svg>
